<svg height="456pt" viewBox="-4 0 456 456.736" width="456pt" xmlns="http://www.w3.org/2000/svg"><path d="m112.367188 64.734375c0 17.675781-14.324219 32-32 32-17.671876 0-32-14.324219-32-32 0-17.671875 14.328124-32 32-32 17.675781 0 32 14.328125 32 32zm0 0"/><path d="m.367188 416.734375h112v40h-112zm0 0"/><path d="m168.367188 368.734375v-98.230469l-48-16v-109.769531h88c13.253906 0 24-10.742187 24-24h-208c-13.253907 0-24 10.746094-24 24v88c0 4.417969 3.582031 8 8 8h16v-88h16v248h24v-147.542969l80 30v85.542969zm0 0"/><path d="m288.367188 336.734375h160v120h-160zm0 0"/><path d="m128.367188 384.734375h144v72h-144zm0 0"/><path d="m368.367188 0-49.679688 80.734375h33.679688v200h32v-200h33.679687zm0 0"/></svg>